<mxfile host="app.diagrams.net" modified="2024-05-09T18:23:30.826Z" agent="Mozilla/5.0 (Macintosh; Intel Mac OS X 10_15_7) AppleWebKit/537.36 (KHTML, like Gecko) Chrome/124.0.0.0 Safari/537.36" etag="TRE-HGZUjPD-1d9HyiJ0" version="24.3.1" type="github">
  <diagram name="componentes" id="DkJfYMlQqM9YxGwyBqGq">
    <mxGraphModel dx="2562" dy="2225" grid="1" gridSize="10" guides="1" tooltips="1" connect="1" arrows="1" fold="1" page="1" pageScale="1" pageWidth="827" pageHeight="1169" math="0" shadow="0">
      <root>
        <mxCell id="0" />
        <mxCell id="1" parent="0" />
        <mxCell id="_5OnRm-G_WFXxfHDdo0h-25" value="" style="group" vertex="1" connectable="0" parent="1">
          <mxGeometry x="990" y="-415" width="250" height="365" as="geometry" />
        </mxCell>
        <mxCell id="_5OnRm-G_WFXxfHDdo0h-24" value="" style="rounded=0;whiteSpace=wrap;html=1;" vertex="1" parent="_5OnRm-G_WFXxfHDdo0h-25">
          <mxGeometry width="250" height="365" as="geometry" />
        </mxCell>
        <mxCell id="oD3bYgC-L7KplqavCX0M-23" value="&lt;font style=&quot;font-size: 20px;&quot;&gt;Classes de análise&lt;/font&gt;" style="text;html=1;align=center;verticalAlign=middle;resizable=0;points=[];autosize=1;strokeColor=none;fillColor=none;fontStyle=2" parent="_5OnRm-G_WFXxfHDdo0h-25" vertex="1">
          <mxGeometry x="10" y="15" width="190" height="40" as="geometry" />
        </mxCell>
        <mxCell id="_5OnRm-G_WFXxfHDdo0h-26" value="" style="group" vertex="1" connectable="0" parent="1">
          <mxGeometry x="-320" y="-260" width="1280" height="750" as="geometry" />
        </mxCell>
        <mxCell id="_5OnRm-G_WFXxfHDdo0h-22" value="" style="rounded=0;whiteSpace=wrap;html=1;" vertex="1" parent="_5OnRm-G_WFXxfHDdo0h-26">
          <mxGeometry width="1280" height="750" as="geometry" />
        </mxCell>
        <mxCell id="oD3bYgC-L7KplqavCX0M-25" value="&lt;font style=&quot;font-size: 24px;&quot;&gt;Componentes do projeto&lt;/font&gt;" style="text;html=1;align=center;verticalAlign=middle;resizable=0;points=[];autosize=1;strokeColor=none;fillColor=none;fontStyle=2" parent="_5OnRm-G_WFXxfHDdo0h-26" vertex="1">
          <mxGeometry x="20" y="20" width="290" height="40" as="geometry" />
        </mxCell>
        <mxCell id="oD3bYgC-L7KplqavCX0M-7" value="" style="ellipse;whiteSpace=wrap;html=1;align=center;aspect=fixed;fillColor=none;strokeColor=none;resizable=0;perimeter=centerPerimeter;rotatable=0;allowArrows=0;points=[];outlineConnect=1;" parent="1" vertex="1">
          <mxGeometry x="435" y="250" width="10" height="10" as="geometry" />
        </mxCell>
        <mxCell id="oD3bYgC-L7KplqavCX0M-14" value="" style="rounded=0;orthogonalLoop=1;jettySize=auto;html=1;endArrow=oval;endFill=0;sketch=0;sourcePerimeterSpacing=0;targetPerimeterSpacing=0;endSize=10;exitX=0;exitY=1;exitDx=0;exitDy=0;" parent="1" source="oD3bYgC-L7KplqavCX0M-18" edge="1">
          <mxGeometry relative="1" as="geometry">
            <mxPoint x="530" y="200" as="sourcePoint" />
            <mxPoint x="440" y="40" as="targetPoint" />
          </mxGeometry>
        </mxCell>
        <mxCell id="oD3bYgC-L7KplqavCX0M-15" value="notificaUsuario" style="text;align=center;fontStyle=1;verticalAlign=middle;spacingLeft=3;spacingRight=3;strokeColor=none;rotatable=0;points=[[0,0.5],[1,0.5]];portConstraint=eastwest;html=1;" parent="1" vertex="1">
          <mxGeometry x="280" y="50" width="80" height="26" as="geometry" />
        </mxCell>
        <mxCell id="oD3bYgC-L7KplqavCX0M-16" value="" style="rounded=0;orthogonalLoop=1;jettySize=auto;html=1;endArrow=halfCircle;endFill=0;endSize=6;strokeWidth=1;sketch=0;fontSize=12;curved=1;exitX=1;exitY=0;exitDx=0;exitDy=0;" parent="1" source="oD3bYgC-L7KplqavCX0M-35" edge="1">
          <mxGeometry relative="1" as="geometry">
            <mxPoint x="370" y="170" as="sourcePoint" />
            <mxPoint x="440" y="40" as="targetPoint" />
          </mxGeometry>
        </mxCell>
        <mxCell id="oD3bYgC-L7KplqavCX0M-17" value="" style="ellipse;whiteSpace=wrap;html=1;align=center;aspect=fixed;fillColor=none;strokeColor=none;resizable=0;perimeter=centerPerimeter;rotatable=0;allowArrows=0;points=[];outlineConnect=1;" parent="1" vertex="1">
          <mxGeometry x="580" y="90" width="10" height="10" as="geometry" />
        </mxCell>
        <mxCell id="_5OnRm-G_WFXxfHDdo0h-19" style="edgeStyle=orthogonalEdgeStyle;rounded=0;orthogonalLoop=1;jettySize=auto;html=1;" edge="1" parent="1" source="oD3bYgC-L7KplqavCX0M-20" target="oD3bYgC-L7KplqavCX0M-18">
          <mxGeometry relative="1" as="geometry" />
        </mxCell>
        <mxCell id="oD3bYgC-L7KplqavCX0M-20" value="&lt;p style=&quot;margin:0px;margin-top:4px;text-align:center;&quot;&gt;&lt;b&gt;coleta_armazena()&lt;/b&gt;&lt;/p&gt;&lt;hr size=&quot;1&quot; style=&quot;border-style:solid;&quot;&gt;&lt;p style=&quot;margin:0px;margin-left:4px;&quot;&gt;+ lat: float&lt;/p&gt;&lt;p style=&quot;margin:0px;margin-left:4px;&quot;&gt;+ long: float&lt;/p&gt;&lt;p style=&quot;margin:0px;margin-left:4px;&quot;&gt;+ dt: timestamp&lt;span style=&quot;background-color: initial;&quot;&gt;&lt;br&gt;&lt;/span&gt;&lt;/p&gt;&lt;p style=&quot;margin:0px;margin-left:4px;&quot;&gt;&lt;span style=&quot;background-color: initial;&quot;&gt;+ temperatura: float&lt;/span&gt;&lt;/p&gt;&lt;p style=&quot;margin:0px;margin-left:4px;&quot;&gt;&lt;span style=&quot;background-color: initial;&quot;&gt;+ umidade: int&lt;/span&gt;&lt;/p&gt;&lt;p style=&quot;margin:0px;margin-left:4px;&quot;&gt;&lt;span style=&quot;background-color: initial;&quot;&gt;+ pressao: int&lt;/span&gt;&lt;/p&gt;&lt;p style=&quot;margin:0px;margin-left:4px;&quot;&gt;&lt;span style=&quot;background-color: initial;&quot;&gt;+ direcao_vento: int&lt;/span&gt;&lt;/p&gt;&lt;p style=&quot;margin:0px;margin-left:4px;&quot;&gt;&lt;span style=&quot;background-color: initial;&quot;&gt;+ velocidade_vento: float&lt;/span&gt;&lt;/p&gt;&lt;p style=&quot;margin:0px;margin-left:4px;&quot;&gt;&lt;br&gt;&lt;/p&gt;&lt;hr size=&quot;1&quot; style=&quot;border-style:solid;&quot;&gt;&lt;p style=&quot;margin:0px;margin-left:4px;&quot;&gt;- coleta()&lt;/p&gt;&lt;p style=&quot;margin:0px;margin-left:4px;&quot;&gt;- armazena_mysql()&lt;/p&gt;&lt;p style=&quot;margin:0px;margin-left:4px;&quot;&gt;+ coleta_concluida()&lt;/p&gt;&lt;p style=&quot;margin:0px;margin-left:4px;&quot;&gt;+ main()&lt;/p&gt;" style="verticalAlign=top;align=left;overflow=fill;html=1;whiteSpace=wrap;" parent="1" vertex="1">
          <mxGeometry x="1050" y="-335" width="160" height="250" as="geometry" />
        </mxCell>
        <mxCell id="oD3bYgC-L7KplqavCX0M-33" value="" style="rounded=0;orthogonalLoop=1;jettySize=auto;html=1;endArrow=oval;endFill=0;sketch=0;sourcePerimeterSpacing=0;targetPerimeterSpacing=0;endSize=10;exitX=0;exitY=0.75;exitDx=10;exitDy=0;exitPerimeter=0;" parent="1" edge="1">
          <mxGeometry relative="1" as="geometry">
            <mxPoint x="230" y="144.44444444444443" as="sourcePoint" />
            <mxPoint x="180" y="144.44444444444443" as="targetPoint" />
          </mxGeometry>
        </mxCell>
        <mxCell id="oD3bYgC-L7KplqavCX0M-34" value="recebeDados" style="text;align=center;fontStyle=1;verticalAlign=middle;spacingLeft=3;spacingRight=3;strokeColor=none;rotatable=0;points=[[0,0.5],[1,0.5]];portConstraint=eastwest;html=1;" parent="1" vertex="1">
          <mxGeometry x="90" y="120.00222222222223" width="80" height="31.777777777777775" as="geometry" />
        </mxCell>
        <mxCell id="oD3bYgC-L7KplqavCX0M-35" value="&lt;p style=&quot;margin:0px;margin-top:6px;text-align:center;&quot;&gt;&lt;b&gt;Serviço de Notificação&lt;/b&gt;&lt;/p&gt;&lt;hr size=&quot;1&quot; style=&quot;border-style:solid;&quot;&gt;&lt;p style=&quot;margin:0px;margin-left:8px;&quot;&gt;usuario: str&lt;/p&gt;&lt;p style=&quot;margin:0px;margin-left:8px;&quot;&gt;mensagem: str&lt;/p&gt;" style="align=left;overflow=fill;html=1;dropTarget=0;whiteSpace=wrap;" parent="1" vertex="1">
          <mxGeometry x="230" y="120" width="180" height="90" as="geometry" />
        </mxCell>
        <mxCell id="oD3bYgC-L7KplqavCX0M-36" value="" style="shape=component;jettyWidth=8;jettyHeight=4;" parent="oD3bYgC-L7KplqavCX0M-35" vertex="1">
          <mxGeometry x="1" width="20" height="20" relative="1" as="geometry">
            <mxPoint x="-24" y="4" as="offset" />
          </mxGeometry>
        </mxCell>
        <mxCell id="oD3bYgC-L7KplqavCX0M-38" value="enviaMensagem" style="text;align=center;fontStyle=1;verticalAlign=middle;spacingLeft=3;spacingRight=3;strokeColor=none;rotatable=0;points=[[0,0.5],[1,0.5]];portConstraint=eastwest;html=1;" parent="1" vertex="1">
          <mxGeometry x="80" y="190.00222222222223" width="80" height="31.777777777777775" as="geometry" />
        </mxCell>
        <mxCell id="oD3bYgC-L7KplqavCX0M-39" value="" style="rounded=0;orthogonalLoop=1;jettySize=auto;html=1;endArrow=oval;endFill=0;sketch=0;sourcePerimeterSpacing=0;targetPerimeterSpacing=0;endSize=10;exitX=0;exitY=0.75;exitDx=10;exitDy=0;exitPerimeter=0;" parent="1" edge="1">
          <mxGeometry relative="1" as="geometry">
            <mxPoint x="230" y="205.66444444444443" as="sourcePoint" />
            <mxPoint x="180" y="205.66444444444443" as="targetPoint" />
          </mxGeometry>
        </mxCell>
        <mxCell id="_5OnRm-G_WFXxfHDdo0h-9" value="" style="group" vertex="1" connectable="0" parent="1">
          <mxGeometry x="-290" y="-120" width="430" height="110" as="geometry" />
        </mxCell>
        <mxCell id="_5OnRm-G_WFXxfHDdo0h-10" value="" style="rounded=0;orthogonalLoop=1;jettySize=auto;html=1;endArrow=oval;endFill=0;sketch=0;sourcePerimeterSpacing=0;targetPerimeterSpacing=0;endSize=10;exitX=0;exitY=0.75;exitDx=10;exitDy=0;exitPerimeter=0;" edge="1" parent="_5OnRm-G_WFXxfHDdo0h-9">
          <mxGeometry relative="1" as="geometry">
            <mxPoint x="150" y="100.22222222222221" as="sourcePoint" />
            <mxPoint x="100" y="100.22222222222221" as="targetPoint" />
          </mxGeometry>
        </mxCell>
        <mxCell id="_5OnRm-G_WFXxfHDdo0h-11" value="inicioServico" style="text;align=center;fontStyle=1;verticalAlign=middle;spacingLeft=3;spacingRight=3;strokeColor=none;rotatable=0;points=[[0,0.5],[1,0.5]];portConstraint=eastwest;html=1;" vertex="1" parent="_5OnRm-G_WFXxfHDdo0h-9">
          <mxGeometry y="78.22222222222221" width="80" height="31.777777777777775" as="geometry" />
        </mxCell>
        <mxCell id="_5OnRm-G_WFXxfHDdo0h-12" value="" style="rounded=0;orthogonalLoop=1;jettySize=auto;html=1;endArrow=oval;endFill=0;sketch=0;sourcePerimeterSpacing=0;targetPerimeterSpacing=0;endSize=10;exitX=0;exitY=0.75;exitDx=10;exitDy=0;exitPerimeter=0;" edge="1" parent="_5OnRm-G_WFXxfHDdo0h-9">
          <mxGeometry relative="1" as="geometry">
            <mxPoint x="150" y="24.444444444444425" as="sourcePoint" />
            <mxPoint x="100" y="24.444444444444425" as="targetPoint" />
          </mxGeometry>
        </mxCell>
        <mxCell id="_5OnRm-G_WFXxfHDdo0h-13" value="recuperaDados" style="text;align=center;fontStyle=1;verticalAlign=middle;spacingLeft=3;spacingRight=3;strokeColor=none;rotatable=0;points=[[0,0.5],[1,0.5]];portConstraint=eastwest;html=1;" vertex="1" parent="_5OnRm-G_WFXxfHDdo0h-9">
          <mxGeometry x="10" y="12.222222222222221" width="80" height="31.777777777777775" as="geometry" />
        </mxCell>
        <mxCell id="_5OnRm-G_WFXxfHDdo0h-14" value="&lt;p style=&quot;margin:0px;margin-top:6px;text-align:center;&quot;&gt;&lt;b&gt;Serviço de Análise de Dados&lt;/b&gt;&lt;/p&gt;&lt;hr size=&quot;1&quot; style=&quot;border-style:solid;&quot;&gt;&lt;p style=&quot;margin:0px;margin-left:8px;&quot;&gt;lat: float&lt;/p&gt;&lt;p style=&quot;margin:0px;margin-left:8px;&quot;&gt;long: float&lt;/p&gt;&lt;p style=&quot;margin:0px;margin-left:8px;&quot;&gt;chave_api: str&lt;/p&gt;&lt;p style=&quot;margin:0px;margin-left:8px;&quot;&gt;nome_tabela: str&lt;/p&gt;&lt;p style=&quot;margin:0px;margin-left:8px;&quot;&gt;nome_bd: str&lt;/p&gt;" style="align=left;overflow=fill;html=1;dropTarget=0;whiteSpace=wrap;" vertex="1" parent="_5OnRm-G_WFXxfHDdo0h-9">
          <mxGeometry x="150" width="280" height="110" as="geometry" />
        </mxCell>
        <mxCell id="_5OnRm-G_WFXxfHDdo0h-15" value="" style="shape=component;jettyWidth=8;jettyHeight=4;" vertex="1" parent="_5OnRm-G_WFXxfHDdo0h-14">
          <mxGeometry x="1" width="20" height="20" relative="1" as="geometry">
            <mxPoint x="-24" y="4" as="offset" />
          </mxGeometry>
        </mxCell>
        <mxCell id="_5OnRm-G_WFXxfHDdo0h-16" value="" style="rounded=0;orthogonalLoop=1;jettySize=auto;html=1;endArrow=oval;endFill=0;sketch=0;sourcePerimeterSpacing=0;targetPerimeterSpacing=0;endSize=10;exitX=1;exitY=1;exitDx=0;exitDy=0;" edge="1" parent="1" source="_5OnRm-G_WFXxfHDdo0h-14">
          <mxGeometry relative="1" as="geometry">
            <mxPoint x="175" y="20" as="sourcePoint" />
            <mxPoint x="210" y="40" as="targetPoint" />
          </mxGeometry>
        </mxCell>
        <mxCell id="_5OnRm-G_WFXxfHDdo0h-17" value="" style="rounded=0;orthogonalLoop=1;jettySize=auto;html=1;endArrow=halfCircle;endFill=0;endSize=6;strokeWidth=1;sketch=0;fontSize=12;curved=1;exitX=0;exitY=0;exitDx=0;exitDy=0;" edge="1" parent="1" source="oD3bYgC-L7KplqavCX0M-35">
          <mxGeometry relative="1" as="geometry">
            <mxPoint x="420" y="130" as="sourcePoint" />
            <mxPoint x="210" y="40" as="targetPoint" />
          </mxGeometry>
        </mxCell>
        <mxCell id="oD3bYgC-L7KplqavCX0M-6" value="" style="rounded=0;orthogonalLoop=1;jettySize=auto;html=1;endArrow=oval;endFill=0;sketch=0;sourcePerimeterSpacing=0;targetPerimeterSpacing=0;endSize=10;exitX=0.897;exitY=1.009;exitDx=0;exitDy=0;exitPerimeter=0;" parent="1" edge="1" source="oD3bYgC-L7KplqavCX0M-18">
          <mxGeometry relative="1" as="geometry">
            <mxPoint x="1020" y="-65.49777777777778" as="sourcePoint" />
            <mxPoint x="711" y="50" as="targetPoint" />
          </mxGeometry>
        </mxCell>
        <mxCell id="oD3bYgC-L7KplqavCX0M-11" value="inicioServico" style="text;align=center;fontStyle=1;verticalAlign=middle;spacingLeft=3;spacingRight=3;strokeColor=none;rotatable=0;points=[[0,0.5],[1,0.5]];portConstraint=eastwest;html=1;" parent="1" vertex="1">
          <mxGeometry x="730" y="30.002222222222215" width="80" height="31.777777777777775" as="geometry" />
        </mxCell>
        <mxCell id="oD3bYgC-L7KplqavCX0M-12" value="" style="rounded=0;orthogonalLoop=1;jettySize=auto;html=1;endArrow=oval;endFill=0;sketch=0;sourcePerimeterSpacing=0;targetPerimeterSpacing=0;endSize=10;exitX=1.014;exitY=0.836;exitDx=0;exitDy=0;exitPerimeter=0;" parent="1" edge="1" source="oD3bYgC-L7KplqavCX0M-18">
          <mxGeometry relative="1" as="geometry">
            <mxPoint x="1015" y="-149.99555555555557" as="sourcePoint" />
            <mxPoint x="840" y="-28" as="targetPoint" />
          </mxGeometry>
        </mxCell>
        <mxCell id="oD3bYgC-L7KplqavCX0M-13" value="coletaAPI" style="text;align=center;fontStyle=1;verticalAlign=middle;spacingLeft=3;spacingRight=3;strokeColor=none;rotatable=0;points=[[0,0.5],[1,0.5]];portConstraint=eastwest;html=1;" parent="1" vertex="1">
          <mxGeometry x="860" y="-49.99777777777777" width="80" height="31.777777777777775" as="geometry" />
        </mxCell>
        <mxCell id="oD3bYgC-L7KplqavCX0M-18" value="&lt;p style=&quot;margin:0px;margin-top:6px;text-align:center;&quot;&gt;&lt;b&gt;Serviço de ETL&lt;/b&gt;&lt;/p&gt;&lt;hr size=&quot;1&quot; style=&quot;border-style:solid;&quot;&gt;&lt;p style=&quot;margin:0px;margin-left:8px;&quot;&gt;lat: float&lt;/p&gt;&lt;p style=&quot;margin:0px;margin-left:8px;&quot;&gt;long: float&lt;/p&gt;&lt;p style=&quot;margin:0px;margin-left:8px;&quot;&gt;chave_api: str&lt;/p&gt;&lt;p style=&quot;margin:0px;margin-left:8px;&quot;&gt;nome_tabela: str&lt;/p&gt;&lt;p style=&quot;margin:0px;margin-left:8px;&quot;&gt;nome_bd: str&lt;/p&gt;" style="align=left;overflow=fill;html=1;dropTarget=0;whiteSpace=wrap;" parent="1" vertex="1">
          <mxGeometry x="550" y="-120" width="180" height="110" as="geometry" />
        </mxCell>
        <mxCell id="oD3bYgC-L7KplqavCX0M-19" value="" style="shape=component;jettyWidth=8;jettyHeight=4;" parent="oD3bYgC-L7KplqavCX0M-18" vertex="1">
          <mxGeometry x="1" width="20" height="20" relative="1" as="geometry">
            <mxPoint x="-24" y="4" as="offset" />
          </mxGeometry>
        </mxCell>
        <mxCell id="_5OnRm-G_WFXxfHDdo0h-20" value="" style="group" vertex="1" connectable="0" parent="1">
          <mxGeometry x="-156.5" y="340" width="570" height="101.77999999999997" as="geometry" />
        </mxCell>
        <mxCell id="_5OnRm-G_WFXxfHDdo0h-1" value="&lt;p style=&quot;margin:0px;margin-top:6px;text-align:center;&quot;&gt;&lt;b&gt;Serviço de Consulta Meteorológica&lt;/b&gt;&lt;/p&gt;&lt;hr size=&quot;1&quot; style=&quot;border-style:solid;&quot;&gt;&lt;p style=&quot;margin:0px;margin-left:8px;&quot;&gt;usuario: str&lt;/p&gt;&lt;p style=&quot;margin:0px;margin-left:8px;&quot;&gt;termo_pesquisa: str&lt;/p&gt;" style="align=left;overflow=fill;html=1;dropTarget=0;whiteSpace=wrap;" vertex="1" parent="_5OnRm-G_WFXxfHDdo0h-20">
          <mxGeometry width="300" height="90" as="geometry" />
        </mxCell>
        <mxCell id="_5OnRm-G_WFXxfHDdo0h-2" value="" style="shape=component;jettyWidth=8;jettyHeight=4;" vertex="1" parent="_5OnRm-G_WFXxfHDdo0h-1">
          <mxGeometry x="1" width="20" height="20" relative="1" as="geometry">
            <mxPoint x="-24" y="4" as="offset" />
          </mxGeometry>
        </mxCell>
        <mxCell id="_5OnRm-G_WFXxfHDdo0h-4" value="recebePesquisa" style="text;align=center;fontStyle=1;verticalAlign=middle;spacingLeft=3;spacingRight=3;strokeColor=none;rotatable=0;points=[[0,0.5],[1,0.5]];portConstraint=eastwest;html=1;" vertex="1" parent="_5OnRm-G_WFXxfHDdo0h-20">
          <mxGeometry x="446" width="124" height="31.78" as="geometry" />
        </mxCell>
        <mxCell id="_5OnRm-G_WFXxfHDdo0h-5" value="enviaResultados" style="text;align=center;fontStyle=1;verticalAlign=middle;spacingLeft=3;spacingRight=3;strokeColor=none;rotatable=0;points=[[0,0.5],[1,0.5]];portConstraint=eastwest;html=1;" vertex="1" parent="_5OnRm-G_WFXxfHDdo0h-20">
          <mxGeometry x="448" y="70" width="120" height="31.78" as="geometry" />
        </mxCell>
        <mxCell id="_5OnRm-G_WFXxfHDdo0h-7" value="" style="rounded=0;orthogonalLoop=1;jettySize=auto;html=1;endArrow=oval;endFill=0;sketch=0;sourcePerimeterSpacing=0;targetPerimeterSpacing=0;endSize=10;exitX=1;exitY=0.5;exitDx=0;exitDy=0;" edge="1" parent="_5OnRm-G_WFXxfHDdo0h-20" source="_5OnRm-G_WFXxfHDdo0h-1">
          <mxGeometry relative="1" as="geometry">
            <mxPoint x="560" y="-24.79555555555558" as="sourcePoint" />
            <mxPoint x="430" y="20" as="targetPoint" />
          </mxGeometry>
        </mxCell>
        <mxCell id="_5OnRm-G_WFXxfHDdo0h-8" value="" style="rounded=0;orthogonalLoop=1;jettySize=auto;html=1;endArrow=oval;endFill=0;sketch=0;sourcePerimeterSpacing=0;targetPerimeterSpacing=0;endSize=10;" edge="1" parent="_5OnRm-G_WFXxfHDdo0h-20" source="_5OnRm-G_WFXxfHDdo0h-1">
          <mxGeometry relative="1" as="geometry">
            <mxPoint x="360" y="80.20999999999998" as="sourcePoint" />
            <mxPoint x="430" y="80" as="targetPoint" />
          </mxGeometry>
        </mxCell>
        <mxCell id="_5OnRm-G_WFXxfHDdo0h-29" value="" style="group" vertex="1" connectable="0" parent="1">
          <mxGeometry x="-320" y="-480" width="410" height="140" as="geometry" />
        </mxCell>
        <mxCell id="_5OnRm-G_WFXxfHDdo0h-27" value="" style="rounded=1;whiteSpace=wrap;html=1;" vertex="1" parent="_5OnRm-G_WFXxfHDdo0h-29">
          <mxGeometry width="410" height="140" as="geometry" />
        </mxCell>
        <mxCell id="_5OnRm-G_WFXxfHDdo0h-21" value="&lt;a style=&quot;font-size: 20px;&quot; href=&quot;https://budkee.notion.site/Open-Weather-Map-3b2e4e5a58ec4898ad31f94c178ca2db?pvs=4&quot;&gt;Análise e Modelagem (Notion)&lt;/a&gt;&lt;div style=&quot;font-size: 20px;&quot;&gt;&lt;a style=&quot;font-size: 20px;&quot; href=&quot;https://budkee.notion.site/Componentes-de-software-4c32db42b6584c9982c5c0b9314c788b?pvs=4&quot;&gt;Descrição dos Componentes (Notion)&lt;/a&gt;&lt;/div&gt;" style="text;html=1;align=left;verticalAlign=middle;resizable=0;points=[];autosize=1;strokeColor=none;fillColor=none;fontSize=20;" vertex="1" parent="_5OnRm-G_WFXxfHDdo0h-29">
          <mxGeometry x="30" y="60" width="360" height="60" as="geometry" />
        </mxCell>
        <mxCell id="_5OnRm-G_WFXxfHDdo0h-28" value="&lt;font style=&quot;font-size: 32px;&quot;&gt;&lt;i&gt;Sobre&lt;/i&gt;&lt;/font&gt;" style="text;html=1;align=left;verticalAlign=bottom;resizable=0;points=[];autosize=1;strokeColor=none;fillColor=none;fontStyle=1" vertex="1" parent="_5OnRm-G_WFXxfHDdo0h-29">
          <mxGeometry x="30" y="10" width="110" height="50" as="geometry" />
        </mxCell>
      </root>
    </mxGraphModel>
  </diagram>
</mxfile>
